<?xml version="1.0" encoding="UTF-8" standalone="no"?>
<!-- Created with Inkscape (http://www.inkscape.org/) -->

<svg
   width="1920"
   height="1080"
   viewBox="0 0 1920 1080"
   version="1.1"
   id="svg8"
   inkscape:version="1.1.1 (3bf5ae0d25, 2021-09-20, custom)"
   sodipodi:docname="q9d.svg"
   inkscape:export-filename="/home/bngo/Desktop/ee123/hw02/q9d.png"
   inkscape:export-xdpi="192"
   inkscape:export-ydpi="192"
   xmlns:inkscape="http://www.inkscape.org/namespaces/inkscape"
   xmlns:sodipodi="http://sodipodi.sourceforge.net/DTD/sodipodi-0.dtd"
   xmlns:xlink="http://www.w3.org/1999/xlink"
   xmlns="http://www.w3.org/2000/svg"
   xmlns:svg="http://www.w3.org/2000/svg"
   xmlns:rdf="http://www.w3.org/1999/02/22-rdf-syntax-ns#"
   xmlns:cc="http://creativecommons.org/ns#"
   xmlns:dc="http://purl.org/dc/elements/1.1/">
  <defs
     id="defs2">
    <marker
       style="overflow:visible"
       id="Arrow1Lstart"
       refX="0.0"
       refY="0.0"
       orient="auto"
       inkscape:stockid="Arrow1Lstart"
       inkscape:isstock="true">
      <path
         transform="scale(0.8) translate(12.5,0)"
         style="fill-rule:evenodd;fill:context-stroke;stroke:context-stroke;stroke-width:1.0pt"
         d="M 0.0,0.0 L 5.0,-5.0 L -12.5,0.0 L 5.0,5.0 L 0.0,0.0 z "
         id="path2906" />
    </marker>
    <marker
       style="overflow:visible;"
       id="marker4093"
       refX="0.0"
       refY="0.0"
       orient="auto"
       inkscape:stockid="Arrow1Lend"
       inkscape:isstock="true">
      <path
         transform="scale(0.8) rotate(180) translate(12.5,0)"
         style="fill-rule:evenodd;fill:context-stroke;stroke:context-stroke;stroke-width:1.0pt;"
         d="M 0.0,0.0 L 5.0,-5.0 L -12.5,0.0 L 5.0,5.0 L 0.0,0.0 z "
         id="path4091" />
    </marker>
    <marker
       style="overflow:visible;"
       id="Arrow1Lend"
       refX="0.0"
       refY="0.0"
       orient="auto"
       inkscape:stockid="Arrow1Lend"
       inkscape:isstock="true">
      <path
         transform="scale(0.8) rotate(180) translate(12.5,0)"
         style="fill-rule:evenodd;fill:context-stroke;stroke:context-stroke;stroke-width:1.0pt;"
         d="M 0.0,0.0 L 5.0,-5.0 L -12.5,0.0 L 5.0,5.0 L 0.0,0.0 z "
         id="path2909" />
    </marker>
    <g
       id="g9499">
      <symbol
         overflow="visible"
         id="symbol2567">
        <path
           style="stroke:none;"
           d=""
           id="path948" />
      </symbol>
      <symbol
         overflow="visible"
         id="symbol8312">
        <path
           style="stroke:none;"
           d="M 3.328125 -3.015625 C 3.390625 -3.265625 3.625 -4.1875 4.3125 -4.1875 C 4.359375 -4.1875 4.609375 -4.1875 4.8125 -4.0625 C 4.53125 -4 4.34375 -3.765625 4.34375 -3.515625 C 4.34375 -3.359375 4.453125 -3.171875 4.71875 -3.171875 C 4.9375 -3.171875 5.25 -3.34375 5.25 -3.75 C 5.25 -4.265625 4.671875 -4.40625 4.328125 -4.40625 C 3.75 -4.40625 3.40625 -3.875 3.28125 -3.65625 C 3.03125 -4.3125 2.5 -4.40625 2.203125 -4.40625 C 1.171875 -4.40625 0.59375 -3.125 0.59375 -2.875 C 0.59375 -2.765625 0.703125 -2.765625 0.71875 -2.765625 C 0.796875 -2.765625 0.828125 -2.796875 0.84375 -2.875 C 1.1875 -3.9375 1.84375 -4.1875 2.1875 -4.1875 C 2.375 -4.1875 2.71875 -4.09375 2.71875 -3.515625 C 2.71875 -3.203125 2.546875 -2.546875 2.1875 -1.140625 C 2.03125 -0.53125 1.671875 -0.109375 1.234375 -0.109375 C 1.171875 -0.109375 0.953125 -0.109375 0.734375 -0.234375 C 0.984375 -0.296875 1.203125 -0.5 1.203125 -0.78125 C 1.203125 -1.046875 0.984375 -1.125 0.84375 -1.125 C 0.53125 -1.125 0.296875 -0.875 0.296875 -0.546875 C 0.296875 -0.09375 0.78125 0.109375 1.21875 0.109375 C 1.890625 0.109375 2.25 -0.59375 2.265625 -0.640625 C 2.390625 -0.28125 2.75 0.109375 3.34375 0.109375 C 4.375 0.109375 4.9375 -1.171875 4.9375 -1.421875 C 4.9375 -1.53125 4.859375 -1.53125 4.828125 -1.53125 C 4.734375 -1.53125 4.71875 -1.484375 4.6875 -1.421875 C 4.359375 -0.34375 3.6875 -0.109375 3.375 -0.109375 C 2.984375 -0.109375 2.828125 -0.421875 2.828125 -0.765625 C 2.828125 -0.984375 2.875 -1.203125 2.984375 -1.640625 Z M 3.328125 -3.015625 "
           id="path5619" />
      </symbol>
      <symbol
         overflow="visible"
         id="symbol4247">
        <path
           style="stroke:none;"
           d="M 0.875 -0.59375 C 0.84375 -0.4375 0.78125 -0.203125 0.78125 -0.15625 C 0.78125 0.015625 0.921875 0.109375 1.078125 0.109375 C 1.203125 0.109375 1.375 0.03125 1.453125 -0.171875 C 1.453125 -0.1875 1.578125 -0.65625 1.640625 -0.90625 L 1.859375 -1.796875 C 1.90625 -2.03125 1.96875 -2.25 2.03125 -2.46875 C 2.0625 -2.640625 2.140625 -2.9375 2.15625 -2.96875 C 2.296875 -3.28125 2.828125 -4.1875 3.78125 -4.1875 C 4.234375 -4.1875 4.3125 -3.8125 4.3125 -3.484375 C 4.3125 -2.875 3.828125 -1.59375 3.671875 -1.171875 C 3.578125 -0.9375 3.5625 -0.8125 3.5625 -0.703125 C 3.5625 -0.234375 3.921875 0.109375 4.390625 0.109375 C 5.328125 0.109375 5.6875 -1.34375 5.6875 -1.421875 C 5.6875 -1.53125 5.609375 -1.53125 5.578125 -1.53125 C 5.46875 -1.53125 5.46875 -1.5 5.421875 -1.34375 C 5.21875 -0.671875 4.890625 -0.109375 4.40625 -0.109375 C 4.234375 -0.109375 4.171875 -0.203125 4.171875 -0.4375 C 4.171875 -0.6875 4.25 -0.921875 4.34375 -1.140625 C 4.53125 -1.671875 4.953125 -2.765625 4.953125 -3.34375 C 4.953125 -4 4.53125 -4.40625 3.8125 -4.40625 C 2.90625 -4.40625 2.421875 -3.765625 2.25 -3.53125 C 2.203125 -4.09375 1.796875 -4.40625 1.328125 -4.40625 C 0.875 -4.40625 0.6875 -4.015625 0.59375 -3.84375 C 0.421875 -3.5 0.296875 -2.90625 0.296875 -2.875 C 0.296875 -2.765625 0.390625 -2.765625 0.40625 -2.765625 C 0.515625 -2.765625 0.515625 -2.78125 0.578125 -3 C 0.75 -3.703125 0.953125 -4.1875 1.3125 -4.1875 C 1.5 -4.1875 1.609375 -4.0625 1.609375 -3.734375 C 1.609375 -3.515625 1.578125 -3.40625 1.453125 -2.890625 Z M 0.875 -0.59375 "
           id="path5687" />
      </symbol>
      <symbol
         overflow="visible"
         id="symbol8301">
        <path
           style="stroke:none;"
           d=""
           id="path5057" />
      </symbol>
      <symbol
         overflow="visible"
         id="symbol5882">
        <path
           style="stroke:none;"
           d="M 2.546875 2.5 L 2.546875 2.09375 L 1.578125 2.09375 L 1.578125 -7.078125 L 2.546875 -7.078125 L 2.546875 -7.484375 L 1.171875 -7.484375 L 1.171875 2.5 Z M 2.546875 2.5 "
           id="path8405" />
      </symbol>
      <symbol
         overflow="visible"
         id="symbol6770">
        <path
           style="stroke:none;"
           d="M 1.578125 -7.484375 L 0.21875 -7.484375 L 0.21875 -7.078125 L 1.1875 -7.078125 L 1.1875 2.09375 L 0.21875 2.09375 L 0.21875 2.5 L 1.578125 2.5 Z M 1.578125 -7.484375 "
           id="path3277" />
      </symbol>
    </g>
    <g
       id="g6852">
      <symbol
         overflow="visible"
         id="symbol7975">
        <path
           style="stroke:none;"
           d=""
           id="path4001" />
      </symbol>
      <symbol
         overflow="visible"
         id="symbol9278">
        <path
           style="stroke:none;"
           d="M 3.328125 -3.015625 C 3.390625 -3.265625 3.625 -4.1875 4.3125 -4.1875 C 4.359375 -4.1875 4.609375 -4.1875 4.8125 -4.0625 C 4.53125 -4 4.34375 -3.765625 4.34375 -3.515625 C 4.34375 -3.359375 4.453125 -3.171875 4.71875 -3.171875 C 4.9375 -3.171875 5.25 -3.34375 5.25 -3.75 C 5.25 -4.265625 4.671875 -4.40625 4.328125 -4.40625 C 3.75 -4.40625 3.40625 -3.875 3.28125 -3.65625 C 3.03125 -4.3125 2.5 -4.40625 2.203125 -4.40625 C 1.171875 -4.40625 0.59375 -3.125 0.59375 -2.875 C 0.59375 -2.765625 0.703125 -2.765625 0.71875 -2.765625 C 0.796875 -2.765625 0.828125 -2.796875 0.84375 -2.875 C 1.1875 -3.9375 1.84375 -4.1875 2.1875 -4.1875 C 2.375 -4.1875 2.71875 -4.09375 2.71875 -3.515625 C 2.71875 -3.203125 2.546875 -2.546875 2.1875 -1.140625 C 2.03125 -0.53125 1.671875 -0.109375 1.234375 -0.109375 C 1.171875 -0.109375 0.953125 -0.109375 0.734375 -0.234375 C 0.984375 -0.296875 1.203125 -0.5 1.203125 -0.78125 C 1.203125 -1.046875 0.984375 -1.125 0.84375 -1.125 C 0.53125 -1.125 0.296875 -0.875 0.296875 -0.546875 C 0.296875 -0.09375 0.78125 0.109375 1.21875 0.109375 C 1.890625 0.109375 2.25 -0.59375 2.265625 -0.640625 C 2.390625 -0.28125 2.75 0.109375 3.34375 0.109375 C 4.375 0.109375 4.9375 -1.171875 4.9375 -1.421875 C 4.9375 -1.53125 4.859375 -1.53125 4.828125 -1.53125 C 4.734375 -1.53125 4.71875 -1.484375 4.6875 -1.421875 C 4.359375 -0.34375 3.6875 -0.109375 3.375 -0.109375 C 2.984375 -0.109375 2.828125 -0.421875 2.828125 -0.765625 C 2.828125 -0.984375 2.875 -1.203125 2.984375 -1.640625 Z M 3.328125 -3.015625 "
           id="path2689" />
      </symbol>
      <symbol
         overflow="visible"
         id="symbol9593">
        <path
           style="stroke:none;"
           d="M 0.875 -0.59375 C 0.84375 -0.4375 0.78125 -0.203125 0.78125 -0.15625 C 0.78125 0.015625 0.921875 0.109375 1.078125 0.109375 C 1.203125 0.109375 1.375 0.03125 1.453125 -0.171875 C 1.453125 -0.1875 1.578125 -0.65625 1.640625 -0.90625 L 1.859375 -1.796875 C 1.90625 -2.03125 1.96875 -2.25 2.03125 -2.46875 C 2.0625 -2.640625 2.140625 -2.9375 2.15625 -2.96875 C 2.296875 -3.28125 2.828125 -4.1875 3.78125 -4.1875 C 4.234375 -4.1875 4.3125 -3.8125 4.3125 -3.484375 C 4.3125 -2.875 3.828125 -1.59375 3.671875 -1.171875 C 3.578125 -0.9375 3.5625 -0.8125 3.5625 -0.703125 C 3.5625 -0.234375 3.921875 0.109375 4.390625 0.109375 C 5.328125 0.109375 5.6875 -1.34375 5.6875 -1.421875 C 5.6875 -1.53125 5.609375 -1.53125 5.578125 -1.53125 C 5.46875 -1.53125 5.46875 -1.5 5.421875 -1.34375 C 5.21875 -0.671875 4.890625 -0.109375 4.40625 -0.109375 C 4.234375 -0.109375 4.171875 -0.203125 4.171875 -0.4375 C 4.171875 -0.6875 4.25 -0.921875 4.34375 -1.140625 C 4.53125 -1.671875 4.953125 -2.765625 4.953125 -3.34375 C 4.953125 -4 4.53125 -4.40625 3.8125 -4.40625 C 2.90625 -4.40625 2.421875 -3.765625 2.25 -3.53125 C 2.203125 -4.09375 1.796875 -4.40625 1.328125 -4.40625 C 0.875 -4.40625 0.6875 -4.015625 0.59375 -3.84375 C 0.421875 -3.5 0.296875 -2.90625 0.296875 -2.875 C 0.296875 -2.765625 0.390625 -2.765625 0.40625 -2.765625 C 0.515625 -2.765625 0.515625 -2.78125 0.578125 -3 C 0.75 -3.703125 0.953125 -4.1875 1.3125 -4.1875 C 1.5 -4.1875 1.609375 -4.0625 1.609375 -3.734375 C 1.609375 -3.515625 1.578125 -3.40625 1.453125 -2.890625 Z M 0.875 -0.59375 "
           id="path7116" />
      </symbol>
      <symbol
         overflow="visible"
         id="symbol9789">
        <path
           style="stroke:none;"
           d=""
           id="path3471" />
      </symbol>
      <symbol
         overflow="visible"
         id="symbol7302">
        <path
           style="stroke:none;"
           d="M 2.546875 2.5 L 2.546875 2.09375 L 1.578125 2.09375 L 1.578125 -7.078125 L 2.546875 -7.078125 L 2.546875 -7.484375 L 1.171875 -7.484375 L 1.171875 2.5 Z M 2.546875 2.5 "
           id="path3282" />
      </symbol>
      <symbol
         overflow="visible"
         id="symbol5041">
        <path
           style="stroke:none;"
           d="M 1.578125 -7.484375 L 0.21875 -7.484375 L 0.21875 -7.078125 L 1.1875 -7.078125 L 1.1875 2.09375 L 0.21875 2.09375 L 0.21875 2.5 L 1.578125 2.5 Z M 1.578125 -7.484375 "
           id="path3257" />
      </symbol>
    </g>
    <g
       id="g2321">
      <symbol
         overflow="visible"
         id="symbol5709">
        <path
           style="stroke:none;"
           d=""
           id="path8994" />
      </symbol>
      <symbol
         overflow="visible"
         id="symbol2495">
        <path
           style="stroke:none;"
           d="M 3.328125 -3.015625 C 3.390625 -3.265625 3.625 -4.1875 4.3125 -4.1875 C 4.359375 -4.1875 4.609375 -4.1875 4.8125 -4.0625 C 4.53125 -4 4.34375 -3.765625 4.34375 -3.515625 C 4.34375 -3.359375 4.453125 -3.171875 4.71875 -3.171875 C 4.9375 -3.171875 5.25 -3.34375 5.25 -3.75 C 5.25 -4.265625 4.671875 -4.40625 4.328125 -4.40625 C 3.75 -4.40625 3.40625 -3.875 3.28125 -3.65625 C 3.03125 -4.3125 2.5 -4.40625 2.203125 -4.40625 C 1.171875 -4.40625 0.59375 -3.125 0.59375 -2.875 C 0.59375 -2.765625 0.703125 -2.765625 0.71875 -2.765625 C 0.796875 -2.765625 0.828125 -2.796875 0.84375 -2.875 C 1.1875 -3.9375 1.84375 -4.1875 2.1875 -4.1875 C 2.375 -4.1875 2.71875 -4.09375 2.71875 -3.515625 C 2.71875 -3.203125 2.546875 -2.546875 2.1875 -1.140625 C 2.03125 -0.53125 1.671875 -0.109375 1.234375 -0.109375 C 1.171875 -0.109375 0.953125 -0.109375 0.734375 -0.234375 C 0.984375 -0.296875 1.203125 -0.5 1.203125 -0.78125 C 1.203125 -1.046875 0.984375 -1.125 0.84375 -1.125 C 0.53125 -1.125 0.296875 -0.875 0.296875 -0.546875 C 0.296875 -0.09375 0.78125 0.109375 1.21875 0.109375 C 1.890625 0.109375 2.25 -0.59375 2.265625 -0.640625 C 2.390625 -0.28125 2.75 0.109375 3.34375 0.109375 C 4.375 0.109375 4.9375 -1.171875 4.9375 -1.421875 C 4.9375 -1.53125 4.859375 -1.53125 4.828125 -1.53125 C 4.734375 -1.53125 4.71875 -1.484375 4.6875 -1.421875 C 4.359375 -0.34375 3.6875 -0.109375 3.375 -0.109375 C 2.984375 -0.109375 2.828125 -0.421875 2.828125 -0.765625 C 2.828125 -0.984375 2.875 -1.203125 2.984375 -1.640625 Z M 3.328125 -3.015625 "
           id="path2345" />
      </symbol>
      <symbol
         overflow="visible"
         id="symbol4006">
        <path
           style="stroke:none;"
           d="M 0.875 -0.59375 C 0.84375 -0.4375 0.78125 -0.203125 0.78125 -0.15625 C 0.78125 0.015625 0.921875 0.109375 1.078125 0.109375 C 1.203125 0.109375 1.375 0.03125 1.453125 -0.171875 C 1.453125 -0.1875 1.578125 -0.65625 1.640625 -0.90625 L 1.859375 -1.796875 C 1.90625 -2.03125 1.96875 -2.25 2.03125 -2.46875 C 2.0625 -2.640625 2.140625 -2.9375 2.15625 -2.96875 C 2.296875 -3.28125 2.828125 -4.1875 3.78125 -4.1875 C 4.234375 -4.1875 4.3125 -3.8125 4.3125 -3.484375 C 4.3125 -2.875 3.828125 -1.59375 3.671875 -1.171875 C 3.578125 -0.9375 3.5625 -0.8125 3.5625 -0.703125 C 3.5625 -0.234375 3.921875 0.109375 4.390625 0.109375 C 5.328125 0.109375 5.6875 -1.34375 5.6875 -1.421875 C 5.6875 -1.53125 5.609375 -1.53125 5.578125 -1.53125 C 5.46875 -1.53125 5.46875 -1.5 5.421875 -1.34375 C 5.21875 -0.671875 4.890625 -0.109375 4.40625 -0.109375 C 4.234375 -0.109375 4.171875 -0.203125 4.171875 -0.4375 C 4.171875 -0.6875 4.25 -0.921875 4.34375 -1.140625 C 4.53125 -1.671875 4.953125 -2.765625 4.953125 -3.34375 C 4.953125 -4 4.53125 -4.40625 3.8125 -4.40625 C 2.90625 -4.40625 2.421875 -3.765625 2.25 -3.53125 C 2.203125 -4.09375 1.796875 -4.40625 1.328125 -4.40625 C 0.875 -4.40625 0.6875 -4.015625 0.59375 -3.84375 C 0.421875 -3.5 0.296875 -2.90625 0.296875 -2.875 C 0.296875 -2.765625 0.390625 -2.765625 0.40625 -2.765625 C 0.515625 -2.765625 0.515625 -2.78125 0.578125 -3 C 0.75 -3.703125 0.953125 -4.1875 1.3125 -4.1875 C 1.5 -4.1875 1.609375 -4.0625 1.609375 -3.734375 C 1.609375 -3.515625 1.578125 -3.40625 1.453125 -2.890625 Z M 0.875 -0.59375 "
           id="path8442" />
      </symbol>
      <symbol
         overflow="visible"
         id="symbol9243">
        <path
           style="stroke:none;"
           d=""
           id="path7533" />
      </symbol>
      <symbol
         overflow="visible"
         id="symbol1195">
        <path
           style="stroke:none;"
           d="M 2.546875 2.5 L 2.546875 2.09375 L 1.578125 2.09375 L 1.578125 -7.078125 L 2.546875 -7.078125 L 2.546875 -7.484375 L 1.171875 -7.484375 L 1.171875 2.5 Z M 2.546875 2.5 "
           id="path3624" />
      </symbol>
      <symbol
         overflow="visible"
         id="symbol7078">
        <path
           style="stroke:none;"
           d="M 1.578125 -7.484375 L 0.21875 -7.484375 L 0.21875 -7.078125 L 1.1875 -7.078125 L 1.1875 2.09375 L 0.21875 2.09375 L 0.21875 2.5 L 1.578125 2.5 Z M 1.578125 -7.484375 "
           id="path908" />
      </symbol>
    </g>
    <g
       id="g7596">
      <symbol
         overflow="visible"
         id="symbol9501">
        <path
           style="stroke:none;"
           d=""
           id="path5175" />
      </symbol>
      <symbol
         overflow="visible"
         id="symbol8472">
        <path
           style="stroke:none;"
           d="M 5.71875 -6.984375 C 5.625 -7.125 5.625 -7.140625 5.484375 -7.140625 C 4.796875 -7.140625 3.578125 -6.859375 3.0625 -6.015625 C 2.90625 -6.296875 2.421875 -7.03125 1.671875 -7.03125 C 0.984375 -7.03125 0.546875 -6.40625 0.546875 -5.828125 C 0.546875 -5.453125 0.78125 -5.203125 1.0625 -4.921875 C 1.609375 -4.359375 1.609375 -4.203125 1.609375 -3.828125 C 1.609375 -3.234375 1.5625 -2.640625 1.125 -2.640625 C 0.859375 -2.640625 0.8125 -3.015625 0.796875 -3.1875 C 0.796875 -3.265625 0.78125 -3.34375 0.671875 -3.34375 C 0.546875 -3.34375 0.546875 -3.234375 0.546875 -3.203125 C 0.546875 -3.015625 0.640625 -2.421875 1.125 -2.421875 C 1.9375 -2.421875 1.9375 -3.703125 1.9375 -3.921875 C 1.9375 -4.234375 1.90625 -4.609375 1.234375 -5.234375 C 0.953125 -5.484375 0.84375 -5.625 0.84375 -5.859375 C 0.84375 -6.28125 1.140625 -6.8125 1.65625 -6.8125 C 2.171875 -6.8125 2.578125 -6.03125 2.578125 -4.859375 L 2.578125 -1.921875 C 2.578125 -1.828125 2.578125 0 1.921875 0 C 1.5625 0 1.1875 -0.3125 0.984375 -0.9375 C 1 -0.9375 1.203125 -1 1.203125 -1.09375 C 1.203125 -1.15625 1.125 -1.203125 1.09375 -1.203125 C 1.0625 -1.203125 0.921875 -1.15625 0.890625 -1.140625 C 0.875 -1.203125 0.828125 -1.3125 0.75 -1.3125 C 0.703125 -1.3125 0.625 -1.21875 0.625 -1.171875 C 0.625 -1.140625 0.640625 -1.078125 0.671875 -1.046875 C 0.609375 -1.03125 0.453125 -0.984375 0.453125 -0.890625 C 0.453125 -0.84375 0.515625 -0.78125 0.5625 -0.78125 C 0.59375 -0.78125 0.71875 -0.828125 0.75 -0.84375 C 1.0625 0.015625 1.578125 0.21875 1.921875 0.21875 C 2.625 0.21875 3.421875 -0.6875 3.421875 -2.71875 L 3.421875 -3.4375 L 4.5625 -3.4375 L 4.6875 -1.25 C 4.6875 -1.1875 4.65625 -1.109375 4.65625 -0.921875 C 4.65625 -0.328125 5.140625 0.21875 5.8125 0.21875 C 5.9375 0.21875 5.96875 0.21875 6.15625 0.078125 L 6.875 -0.484375 C 6.984375 -0.578125 7 -0.59375 7 -0.625 C 7 -0.703125 6.84375 -0.765625 6.8125 -0.765625 C 6.765625 -0.765625 6.40625 -0.484375 5.953125 -0.109375 C 5.609375 -0.328125 5.5 -0.65625 5.5 -0.921875 C 5.5 -1.109375 5.53125 -1.140625 5.53125 -1.25 C 5.53125 -1.546875 5.484375 -2.0625 5.46875 -2.375 C 5.453125 -2.578125 5.40625 -3.375 5.40625 -3.515625 C 5.96875 -3.6875 7.046875 -4.328125 7.0625 -4.34375 C 7.09375 -4.359375 7.125 -4.390625 7.125 -4.4375 C 7.125 -4.453125 7.0625 -4.578125 7.046875 -4.578125 Z M 6.28125 -4.25 C 5.359375 -3.75 5.15625 -3.75 4.859375 -3.75 L 3.421875 -3.75 L 3.421875 -4.234375 C 3.421875 -4.921875 3.328125 -5.3125 3.21875 -5.625 C 3.5625 -6.578125 4.859375 -6.765625 4.859375 -6.765625 C 4.890625 -6.765625 4.9375 -6.65625 4.953125 -6.65625 Z M 6.28125 -4.25 "
           id="path6039" />
      </symbol>
    </g>
    <g
       id="g6869">
      <symbol
         overflow="visible"
         id="symbol7594">
        <path
           style="stroke:none;"
           d=""
           id="path8610" />
      </symbol>
      <symbol
         overflow="visible"
         id="symbol3870">
        <path
           style="stroke:none;"
           d="M 2.859375 -3.34375 C 2.859375 -3.421875 2.796875 -3.453125 2.765625 -3.453125 C 1.25 -3.546875 0.859375 -4.546875 0.859375 -5.140625 C 0.859375 -6.125 1.765625 -6.8125 2.671875 -6.8125 C 3.234375 -6.8125 3.5625 -6.453125 3.984375 -5.90625 C 4.4375 -5.34375 4.921875 -4.734375 5.765625 -4.734375 C 6.46875 -4.734375 6.90625 -5.046875 6.90625 -5.4375 C 6.90625 -5.5625 6.8125 -5.5625 6.75 -5.5625 C 6.625 -5.5625 6.609375 -5.515625 6.59375 -5.421875 C 6.515625 -4.953125 5.8125 -4.953125 5.796875 -4.953125 C 5.65625 -4.953125 5.59375 -4.984375 5.4375 -5.28125 C 4.546875 -6.921875 3.125 -7.03125 2.71875 -7.03125 C 1.5 -7.03125 0.546875 -6.1875 0.546875 -5.140625 C 0.546875 -3.90625 1.78125 -3.234375 2.6875 -3.234375 C 2.75 -3.234375 2.859375 -3.234375 2.859375 -3.34375 Z M 0.8125 -1.828125 C 0.640625 -1.828125 0.546875 -1.828125 0.546875 -1.71875 C 0.546875 -1.6875 0.546875 -1.609375 0.640625 -1.609375 C 0.984375 -1.578125 1.3125 -1.5625 2.078125 -0.859375 C 3.140625 0.109375 3.359375 0.109375 4.15625 0.109375 C 4.671875 0.109375 5.09375 0.109375 5.578125 -0.234375 C 5.9375 -0.46875 6.21875 -0.875 6.21875 -1.375 C 6.21875 -1.734375 6.078125 -1.9375 5.71875 -2.34375 C 5.328125 -2.78125 5.296875 -2.953125 5.296875 -3.1875 C 5.296875 -3.609375 5.40625 -4.078125 5.765625 -4.078125 C 5.78125 -4.078125 6.515625 -4.078125 6.59375 -3.375 C 6.609375 -3.3125 6.625 -3.25 6.75 -3.25 C 6.875 -3.25 6.90625 -3.296875 6.90625 -3.390625 C 6.90625 -3.8125 6.453125 -4.296875 5.75 -4.296875 C 5.03125 -4.296875 4.453125 -3.78125 4.453125 -3.15625 C 4.453125 -2.75 4.6875 -2.5 4.984375 -2.15625 C 5.359375 -1.75 5.390625 -1.578125 5.390625 -1.375 C 5.390625 -0.453125 4.359375 -0.125 4.171875 -0.125 C 4.109375 -0.125 3.84375 -0.203125 3.515625 -0.421875 C 3.34375 -0.5625 3.0625 -0.8125 3.015625 -0.84375 C 2.296875 -1.53125 1.90625 -1.828125 1.21875 -1.828125 Z M 0.8125 -1.828125 "
           id="path6051" />
      </symbol>
    </g>
    <g
       id="g5858">
      <symbol
         overflow="visible"
         id="symbol3797">
        <path
           style="stroke:none;"
           d=""
           id="path3359" />
      </symbol>
      <symbol
         overflow="visible"
         id="symbol2421">
        <path
           style="stroke:none;"
           d="M 6.109375 -6.03125 C 6.109375 -6.390625 6.125 -6.5 6.890625 -6.5 L 7.140625 -6.5 L 7.140625 -6.8125 C 6.78125 -6.78125 6.046875 -6.78125 5.671875 -6.78125 C 5.296875 -6.78125 4.546875 -6.78125 4.203125 -6.8125 L 4.203125 -6.5 L 4.4375 -6.5 C 5.203125 -6.5 5.21875 -6.390625 5.21875 -6.03125 L 5.21875 -3.703125 L 2.25 -3.703125 L 2.25 -6.03125 C 2.25 -6.390625 2.265625 -6.5 3.03125 -6.5 L 3.265625 -6.5 L 3.265625 -6.8125 C 2.921875 -6.78125 2.1875 -6.78125 1.796875 -6.78125 C 1.421875 -6.78125 0.671875 -6.78125 0.328125 -6.8125 L 0.328125 -6.5 L 0.5625 -6.5 C 1.328125 -6.5 1.359375 -6.390625 1.359375 -6.03125 L 1.359375 -0.78125 C 1.359375 -0.421875 1.328125 -0.3125 0.5625 -0.3125 L 0.328125 -0.3125 L 0.328125 0 C 0.671875 -0.03125 1.421875 -0.03125 1.796875 -0.03125 C 2.171875 -0.03125 2.921875 -0.03125 3.265625 0 L 3.265625 -0.3125 L 3.03125 -0.3125 C 2.265625 -0.3125 2.25 -0.421875 2.25 -0.78125 L 2.25 -3.390625 L 5.21875 -3.390625 L 5.21875 -0.78125 C 5.21875 -0.421875 5.203125 -0.3125 4.4375 -0.3125 L 4.203125 -0.3125 L 4.203125 0 C 4.546875 -0.03125 5.28125 -0.03125 5.65625 -0.03125 C 6.046875 -0.03125 6.78125 -0.03125 7.140625 0 L 7.140625 -0.3125 L 6.890625 -0.3125 C 6.125 -0.3125 6.109375 -0.421875 6.109375 -0.78125 Z M 6.109375 -6.03125 "
           id="path8044" />
      </symbol>
      <symbol
         overflow="visible"
         id="symbol9423">
        <path
           style="stroke:none;"
           d="M 1.765625 -4.40625 L 0.375 -4.296875 L 0.375 -3.984375 C 1.015625 -3.984375 1.109375 -3.921875 1.109375 -3.4375 L 1.109375 -0.75 C 1.109375 -0.3125 1 -0.3125 0.328125 -0.3125 L 0.328125 0 C 0.640625 -0.015625 1.1875 -0.03125 1.421875 -0.03125 C 1.78125 -0.03125 2.125 -0.015625 2.46875 0 L 2.46875 -0.3125 C 1.796875 -0.3125 1.765625 -0.359375 1.765625 -0.75 Z M 1.796875 -6.140625 C 1.796875 -6.453125 1.5625 -6.671875 1.28125 -6.671875 C 0.96875 -6.671875 0.75 -6.40625 0.75 -6.140625 C 0.75 -5.875 0.96875 -5.609375 1.28125 -5.609375 C 1.5625 -5.609375 1.796875 -5.828125 1.796875 -6.140625 Z M 1.796875 -6.140625 "
           id="path1338" />
      </symbol>
      <symbol
         overflow="visible"
         id="symbol1146">
        <path
           style="stroke:none;"
           d="M 1.765625 -6.921875 L 0.328125 -6.8125 L 0.328125 -6.5 C 1.03125 -6.5 1.109375 -6.4375 1.109375 -5.9375 L 1.109375 -0.75 C 1.109375 -0.3125 1 -0.3125 0.328125 -0.3125 L 0.328125 0 C 0.65625 -0.015625 1.1875 -0.03125 1.4375 -0.03125 C 1.6875 -0.03125 2.171875 -0.015625 2.546875 0 L 2.546875 -0.3125 C 1.875 -0.3125 1.765625 -0.3125 1.765625 -0.75 Z M 1.765625 -6.921875 "
           id="path566" />
      </symbol>
      <symbol
         overflow="visible"
         id="symbol1459">
        <path
           style="stroke:none;"
           d="M 1.71875 -3.765625 L 1.71875 -6.921875 L 0.28125 -6.8125 L 0.28125 -6.5 C 0.984375 -6.5 1.0625 -6.4375 1.0625 -5.9375 L 1.0625 0 L 1.3125 0 C 1.3125 -0.015625 1.390625 -0.15625 1.671875 -0.625 C 1.8125 -0.390625 2.234375 0.109375 2.96875 0.109375 C 4.15625 0.109375 5.1875 -0.875 5.1875 -2.15625 C 5.1875 -3.421875 4.21875 -4.40625 3.078125 -4.40625 C 2.296875 -4.40625 1.875 -3.9375 1.71875 -3.765625 Z M 1.75 -1.140625 L 1.75 -3.1875 C 1.75 -3.375 1.75 -3.390625 1.859375 -3.546875 C 2.25 -4.109375 2.796875 -4.1875 3.03125 -4.1875 C 3.484375 -4.1875 3.84375 -3.921875 4.078125 -3.546875 C 4.34375 -3.140625 4.359375 -2.578125 4.359375 -2.15625 C 4.359375 -1.796875 4.34375 -1.203125 4.0625 -0.75 C 3.84375 -0.4375 3.46875 -0.109375 2.9375 -0.109375 C 2.484375 -0.109375 2.125 -0.34375 1.890625 -0.71875 C 1.75 -0.921875 1.75 -0.953125 1.75 -1.140625 Z M 1.75 -1.140625 "
           id="path4731" />
      </symbol>
      <symbol
         overflow="visible"
         id="symbol6785">
        <path
           style="stroke:none;"
           d="M 1.109375 -2.515625 C 1.171875 -4 2.015625 -4.25 2.359375 -4.25 C 3.375 -4.25 3.484375 -2.90625 3.484375 -2.515625 Z M 1.109375 -2.296875 L 3.890625 -2.296875 C 4.109375 -2.296875 4.140625 -2.296875 4.140625 -2.515625 C 4.140625 -3.5 3.59375 -4.46875 2.359375 -4.46875 C 1.203125 -4.46875 0.28125 -3.4375 0.28125 -2.1875 C 0.28125 -0.859375 1.328125 0.109375 2.46875 0.109375 C 3.6875 0.109375 4.140625 -1 4.140625 -1.1875 C 4.140625 -1.28125 4.0625 -1.3125 4 -1.3125 C 3.921875 -1.3125 3.890625 -1.25 3.875 -1.171875 C 3.53125 -0.140625 2.625 -0.140625 2.53125 -0.140625 C 2.03125 -0.140625 1.640625 -0.4375 1.40625 -0.8125 C 1.109375 -1.28125 1.109375 -1.9375 1.109375 -2.296875 Z M 1.109375 -2.296875 "
           id="path1829" />
      </symbol>
      <symbol
         overflow="visible"
         id="symbol3974">
        <path
           style="stroke:none;"
           d="M 1.671875 -3.3125 L 1.671875 -4.40625 L 0.28125 -4.296875 L 0.28125 -3.984375 C 0.984375 -3.984375 1.0625 -3.921875 1.0625 -3.421875 L 1.0625 -0.75 C 1.0625 -0.3125 0.953125 -0.3125 0.28125 -0.3125 L 0.28125 0 C 0.671875 -0.015625 1.140625 -0.03125 1.421875 -0.03125 C 1.8125 -0.03125 2.28125 -0.03125 2.6875 0 L 2.6875 -0.3125 L 2.46875 -0.3125 C 1.734375 -0.3125 1.71875 -0.421875 1.71875 -0.78125 L 1.71875 -2.3125 C 1.71875 -3.296875 2.140625 -4.1875 2.890625 -4.1875 C 2.953125 -4.1875 2.984375 -4.1875 3 -4.171875 C 2.96875 -4.171875 2.765625 -4.046875 2.765625 -3.78125 C 2.765625 -3.515625 2.984375 -3.359375 3.203125 -3.359375 C 3.375 -3.359375 3.625 -3.484375 3.625 -3.796875 C 3.625 -4.109375 3.3125 -4.40625 2.890625 -4.40625 C 2.15625 -4.40625 1.796875 -3.734375 1.671875 -3.3125 Z M 1.671875 -3.3125 "
           id="path714" />
      </symbol>
      <symbol
         overflow="visible"
         id="symbol2588">
        <path
           style="stroke:none;"
           d="M 1.71875 -3.984375 L 3.15625 -3.984375 L 3.15625 -4.296875 L 1.71875 -4.296875 L 1.71875 -6.125 L 1.46875 -6.125 C 1.46875 -5.3125 1.171875 -4.25 0.1875 -4.203125 L 0.1875 -3.984375 L 1.03125 -3.984375 L 1.03125 -1.234375 C 1.03125 -0.015625 1.96875 0.109375 2.328125 0.109375 C 3.03125 0.109375 3.3125 -0.59375 3.3125 -1.234375 L 3.3125 -1.796875 L 3.0625 -1.796875 L 3.0625 -1.25 C 3.0625 -0.515625 2.765625 -0.140625 2.390625 -0.140625 C 1.71875 -0.140625 1.71875 -1.046875 1.71875 -1.21875 Z M 1.71875 -3.984375 "
           id="path9269" />
      </symbol>
      <symbol
         overflow="visible"
         id="symbol3521">
        <path
           style="stroke:none;"
           d="M 3.3125 -0.75 C 3.359375 -0.359375 3.625 0.0625 4.09375 0.0625 C 4.3125 0.0625 4.921875 -0.078125 4.921875 -0.890625 L 4.921875 -1.453125 L 4.671875 -1.453125 L 4.671875 -0.890625 C 4.671875 -0.3125 4.421875 -0.25 4.3125 -0.25 C 3.984375 -0.25 3.9375 -0.703125 3.9375 -0.75 L 3.9375 -2.734375 C 3.9375 -3.15625 3.9375 -3.546875 3.578125 -3.921875 C 3.1875 -4.3125 2.6875 -4.46875 2.21875 -4.46875 C 1.390625 -4.46875 0.703125 -4 0.703125 -3.34375 C 0.703125 -3.046875 0.90625 -2.875 1.171875 -2.875 C 1.453125 -2.875 1.625 -3.078125 1.625 -3.328125 C 1.625 -3.453125 1.578125 -3.78125 1.109375 -3.78125 C 1.390625 -4.140625 1.875 -4.25 2.1875 -4.25 C 2.6875 -4.25 3.25 -3.859375 3.25 -2.96875 L 3.25 -2.609375 C 2.734375 -2.578125 2.046875 -2.546875 1.421875 -2.25 C 0.671875 -1.90625 0.421875 -1.390625 0.421875 -0.953125 C 0.421875 -0.140625 1.390625 0.109375 2.015625 0.109375 C 2.671875 0.109375 3.125 -0.296875 3.3125 -0.75 Z M 3.25 -2.390625 L 3.25 -1.390625 C 3.25 -0.453125 2.53125 -0.109375 2.078125 -0.109375 C 1.59375 -0.109375 1.1875 -0.453125 1.1875 -0.953125 C 1.1875 -1.5 1.609375 -2.328125 3.25 -2.390625 Z M 3.25 -2.390625 "
           id="path4905" />
      </symbol>
      <symbol
         overflow="visible"
         id="symbol9223">
        <path
           style="stroke:none;"
           d="M 1.09375 -3.421875 L 1.09375 -0.75 C 1.09375 -0.3125 0.984375 -0.3125 0.3125 -0.3125 L 0.3125 0 C 0.671875 -0.015625 1.171875 -0.03125 1.453125 -0.03125 C 1.703125 -0.03125 2.21875 -0.015625 2.5625 0 L 2.5625 -0.3125 C 1.890625 -0.3125 1.78125 -0.3125 1.78125 -0.75 L 1.78125 -2.59375 C 1.78125 -3.625 2.5 -4.1875 3.125 -4.1875 C 3.765625 -4.1875 3.875 -3.65625 3.875 -3.078125 L 3.875 -0.75 C 3.875 -0.3125 3.765625 -0.3125 3.09375 -0.3125 L 3.09375 0 C 3.4375 -0.015625 3.953125 -0.03125 4.21875 -0.03125 C 4.46875 -0.03125 5 -0.015625 5.328125 0 L 5.328125 -0.3125 C 4.8125 -0.3125 4.5625 -0.3125 4.5625 -0.609375 L 4.5625 -2.515625 C 4.5625 -3.375 4.5625 -3.671875 4.25 -4.03125 C 4.109375 -4.203125 3.78125 -4.40625 3.203125 -4.40625 C 2.46875 -4.40625 2 -3.984375 1.71875 -3.359375 L 1.71875 -4.40625 L 0.3125 -4.296875 L 0.3125 -3.984375 C 1.015625 -3.984375 1.09375 -3.921875 1.09375 -3.421875 Z M 1.09375 -3.421875 "
           id="path3664" />
      </symbol>
      <symbol
         overflow="visible"
         id="symbol9059">
        <path
           style="stroke:none;"
           d="M 2.078125 -1.9375 C 2.296875 -1.890625 3.109375 -1.734375 3.109375 -1.015625 C 3.109375 -0.515625 2.765625 -0.109375 1.984375 -0.109375 C 1.140625 -0.109375 0.78125 -0.671875 0.59375 -1.53125 C 0.5625 -1.65625 0.5625 -1.6875 0.453125 -1.6875 C 0.328125 -1.6875 0.328125 -1.625 0.328125 -1.453125 L 0.328125 -0.125 C 0.328125 0.046875 0.328125 0.109375 0.4375 0.109375 C 0.484375 0.109375 0.5 0.09375 0.6875 -0.09375 C 0.703125 -0.109375 0.703125 -0.125 0.890625 -0.3125 C 1.328125 0.09375 1.78125 0.109375 1.984375 0.109375 C 3.125 0.109375 3.59375 -0.5625 3.59375 -1.28125 C 3.59375 -1.796875 3.296875 -2.109375 3.171875 -2.21875 C 2.84375 -2.546875 2.453125 -2.625 2.03125 -2.703125 C 1.46875 -2.8125 0.8125 -2.9375 0.8125 -3.515625 C 0.8125 -3.875 1.0625 -4.28125 1.921875 -4.28125 C 3.015625 -4.28125 3.078125 -3.375 3.09375 -3.078125 C 3.09375 -2.984375 3.1875 -2.984375 3.203125 -2.984375 C 3.34375 -2.984375 3.34375 -3.03125 3.34375 -3.21875 L 3.34375 -4.234375 C 3.34375 -4.390625 3.34375 -4.46875 3.234375 -4.46875 C 3.1875 -4.46875 3.15625 -4.46875 3.03125 -4.34375 C 3 -4.3125 2.90625 -4.21875 2.859375 -4.1875 C 2.484375 -4.46875 2.078125 -4.46875 1.921875 -4.46875 C 0.703125 -4.46875 0.328125 -3.796875 0.328125 -3.234375 C 0.328125 -2.890625 0.484375 -2.609375 0.75 -2.390625 C 1.078125 -2.140625 1.359375 -2.078125 2.078125 -1.9375 Z M 2.078125 -1.9375 "
           id="path3011" />
      </symbol>
      <symbol
         overflow="visible"
         id="symbol7731">
        <path
           style="stroke:none;"
           d="M 1.75 -4.296875 L 1.75 -5.453125 C 1.75 -6.328125 2.21875 -6.8125 2.65625 -6.8125 C 2.6875 -6.8125 2.84375 -6.8125 2.984375 -6.734375 C 2.875 -6.703125 2.6875 -6.5625 2.6875 -6.3125 C 2.6875 -6.09375 2.84375 -5.890625 3.125 -5.890625 C 3.40625 -5.890625 3.5625 -6.09375 3.5625 -6.328125 C 3.5625 -6.703125 3.1875 -7.03125 2.65625 -7.03125 C 1.96875 -7.03125 1.109375 -6.5 1.109375 -5.4375 L 1.109375 -4.296875 L 0.328125 -4.296875 L 0.328125 -3.984375 L 1.109375 -3.984375 L 1.109375 -0.75 C 1.109375 -0.3125 1 -0.3125 0.34375 -0.3125 L 0.34375 0 C 0.734375 -0.015625 1.203125 -0.03125 1.46875 -0.03125 C 1.875 -0.03125 2.34375 -0.03125 2.734375 0 L 2.734375 -0.3125 L 2.53125 -0.3125 C 1.796875 -0.3125 1.78125 -0.421875 1.78125 -0.78125 L 1.78125 -3.984375 L 2.90625 -3.984375 L 2.90625 -4.296875 Z M 1.75 -4.296875 "
           id="path5762" />
      </symbol>
      <symbol
         overflow="visible"
         id="symbol9262">
        <path
           style="stroke:none;"
           d="M 4.6875 -2.140625 C 4.6875 -3.40625 3.703125 -4.46875 2.5 -4.46875 C 1.25 -4.46875 0.28125 -3.375 0.28125 -2.140625 C 0.28125 -0.84375 1.3125 0.109375 2.484375 0.109375 C 3.6875 0.109375 4.6875 -0.875 4.6875 -2.140625 Z M 2.5 -0.140625 C 2.0625 -0.140625 1.625 -0.34375 1.359375 -0.8125 C 1.109375 -1.25 1.109375 -1.859375 1.109375 -2.21875 C 1.109375 -2.609375 1.109375 -3.140625 1.34375 -3.578125 C 1.609375 -4.03125 2.078125 -4.25 2.484375 -4.25 C 2.921875 -4.25 3.34375 -4.03125 3.609375 -3.59375 C 3.875 -3.171875 3.875 -2.59375 3.875 -2.21875 C 3.875 -1.859375 3.875 -1.3125 3.65625 -0.875 C 3.421875 -0.421875 2.984375 -0.140625 2.5 -0.140625 Z M 2.5 -0.140625 "
           id="path6626" />
      </symbol>
      <symbol
         overflow="visible"
         id="symbol1338">
        <path
           style="stroke:none;"
           d="M 1.09375 -3.421875 L 1.09375 -0.75 C 1.09375 -0.3125 0.984375 -0.3125 0.3125 -0.3125 L 0.3125 0 C 0.671875 -0.015625 1.171875 -0.03125 1.453125 -0.03125 C 1.703125 -0.03125 2.21875 -0.015625 2.5625 0 L 2.5625 -0.3125 C 1.890625 -0.3125 1.78125 -0.3125 1.78125 -0.75 L 1.78125 -2.59375 C 1.78125 -3.625 2.5 -4.1875 3.125 -4.1875 C 3.765625 -4.1875 3.875 -3.65625 3.875 -3.078125 L 3.875 -0.75 C 3.875 -0.3125 3.765625 -0.3125 3.09375 -0.3125 L 3.09375 0 C 3.4375 -0.015625 3.953125 -0.03125 4.21875 -0.03125 C 4.46875 -0.03125 5 -0.015625 5.328125 0 L 5.328125 -0.3125 C 4.671875 -0.3125 4.5625 -0.3125 4.5625 -0.75 L 4.5625 -2.59375 C 4.5625 -3.625 5.265625 -4.1875 5.90625 -4.1875 C 6.53125 -4.1875 6.640625 -3.65625 6.640625 -3.078125 L 6.640625 -0.75 C 6.640625 -0.3125 6.53125 -0.3125 5.859375 -0.3125 L 5.859375 0 C 6.203125 -0.015625 6.71875 -0.03125 6.984375 -0.03125 C 7.25 -0.03125 7.765625 -0.015625 8.109375 0 L 8.109375 -0.3125 C 7.59375 -0.3125 7.34375 -0.3125 7.328125 -0.609375 L 7.328125 -2.515625 C 7.328125 -3.375 7.328125 -3.671875 7.015625 -4.03125 C 6.875 -4.203125 6.546875 -4.40625 5.96875 -4.40625 C 5.140625 -4.40625 4.6875 -3.8125 4.53125 -3.421875 C 4.390625 -4.296875 3.65625 -4.40625 3.203125 -4.40625 C 2.46875 -4.40625 2 -3.984375 1.71875 -3.359375 L 1.71875 -4.40625 L 0.3125 -4.296875 L 0.3125 -3.984375 C 1.015625 -3.984375 1.09375 -3.921875 1.09375 -3.421875 Z M 1.09375 -3.421875 "
           id="path4015" />
      </symbol>
    </g>
    <g
       id="g2532">
      <symbol
         overflow="visible"
         id="symbol1749">
        <path
           style="stroke:none;"
           d=""
           id="path2666" />
      </symbol>
      <symbol
         overflow="visible"
         id="symbol4469">
        <path
           style="stroke:none;"
           d="M 3.953125 -6.234375 C 3.953125 -6.421875 3.8125 -6.59375 3.578125 -6.59375 C 3.34375 -6.59375 3.046875 -6.359375 3.046875 -6.0625 C 3.046875 -5.859375 3.1875 -5.703125 3.421875 -5.703125 C 3.6875 -5.703125 3.953125 -5.96875 3.953125 -6.234375 Z M 1.953125 0.5 C 1.765625 1.25 1.28125 1.828125 0.734375 1.828125 C 0.671875 1.828125 0.515625 1.828125 0.34375 1.734375 C 0.640625 1.671875 0.78125 1.40625 0.78125 1.203125 C 0.78125 1.046875 0.671875 0.859375 0.40625 0.859375 C 0.15625 0.859375 -0.125 1.0625 -0.125 1.421875 C -0.125 1.828125 0.265625 2.046875 0.75 2.046875 C 1.453125 2.046875 2.375 1.515625 2.625 0.53125 L 3.53125 -3.125 C 3.59375 -3.3125 3.59375 -3.453125 3.59375 -3.484375 C 3.59375 -4.0625 3.171875 -4.40625 2.671875 -4.40625 C 1.65625 -4.40625 1.09375 -2.953125 1.09375 -2.875 C 1.09375 -2.765625 1.1875 -2.765625 1.203125 -2.765625 C 1.296875 -2.765625 1.3125 -2.78125 1.390625 -2.96875 C 1.640625 -3.578125 2.09375 -4.1875 2.640625 -4.1875 C 2.78125 -4.1875 2.953125 -4.140625 2.953125 -3.734375 C 2.953125 -3.5 2.9375 -3.390625 2.890625 -3.21875 Z M 1.953125 0.5 "
           id="path111" />
      </symbol>
    </g>
    <g
       id="g8905">
      <symbol
         overflow="visible"
         id="symbol7010">
        <path
           style="stroke:none;"
           d=""
           id="path8273" />
      </symbol>
      <symbol
         overflow="visible"
         id="symbol9222">
        <path
           style="stroke:none;"
           d="M 3.296875 -3.34375 C 3.421875 -3.8125 3.5625 -4.3125 3.65625 -4.796875 C 3.78125 -5.46875 3.84375 -6.125 3.84375 -6.25 C 3.84375 -6.8125 3.296875 -6.8125 3.1875 -6.8125 C 2.421875 -6.8125 1.75 -6.53125 1.28125 -6.203125 C 0.46875 -5.65625 0.203125 -5 0.203125 -4.9375 C 0.203125 -4.875 0.28125 -4.875 0.3125 -4.875 C 0.390625 -4.875 0.859375 -5 1.0625 -5.375 C 1.328125 -5.875 1.625 -6.265625 2.515625 -6.265625 C 2.9375 -6.265625 3 -5.984375 3 -5.828125 C 3 -5.8125 2.96875 -5.34375 2.84375 -4.65625 C 2.796875 -4.375 2.765625 -4.203125 2.5625 -3.34375 L 2.203125 -3.34375 C 1.921875 -3.328125 1.46875 -3.015625 1.46875 -2.859375 C 1.46875 -2.796875 1.46875 -2.796875 1.6875 -2.796875 L 2.40625 -2.796875 C 2.203125 -2.09375 1.921875 -1.140625 1.46875 0.078125 C 1.375 0.3125 1.375 0.328125 1.375 0.34375 C 1.375 0.40625 1.453125 0.40625 1.46875 0.40625 C 1.609375 0.40625 1.921875 0.28125 2.125 0.078125 C 2.171875 0.015625 2.1875 0 2.234375 -0.09375 C 2.578125 -0.984375 2.875 -1.875 3.140625 -2.796875 L 5.390625 -2.796875 C 5.5 -2.796875 5.6875 -2.796875 5.84375 -2.890625 C 5.734375 -2.46875 5.328125 -0.84375 5.328125 -0.0625 C 5.328125 0.234375 5.5 0.484375 5.921875 0.484375 C 7.25 0.484375 7.984375 -0.34375 7.984375 -0.65625 C 7.984375 -0.71875 7.9375 -0.734375 7.890625 -0.734375 C 7.8125 -0.734375 7.28125 -0.59375 7.125 -0.203125 C 7.09375 -0.125 7.078125 -0.125 6.890625 -0.09375 C 6.78125 -0.0625 6.59375 -0.0625 6.578125 -0.0625 C 6.40625 -0.0625 6.171875 -0.171875 6.171875 -0.484375 C 6.171875 -0.609375 6.234375 -1.15625 6.265625 -1.375 C 6.4375 -2.484375 6.921875 -4.359375 7.78125 -6.625 C 7.8125 -6.703125 7.8125 -6.71875 7.8125 -6.734375 C 7.8125 -6.8125 7.75 -6.8125 7.71875 -6.8125 C 7.5625 -6.8125 7.28125 -6.671875 7.09375 -6.5 C 7.078125 -6.484375 7.015625 -6.4375 6.984375 -6.34375 C 6.578125 -5.359375 6.265625 -4.359375 5.96875 -3.34375 Z M 3.296875 -3.34375 "
           id="path5148" />
      </symbol>
    </g>
    <g
       id="g2745">
      <symbol
         overflow="visible"
         id="symbol6167">
        <path
           style="stroke:none;"
           d=""
           id="path9880" />
      </symbol>
      <symbol
         overflow="visible"
         id="symbol3988">
        <path
           style="stroke:none;"
           d="M 4.078125 -2.296875 L 6.859375 -2.296875 C 7 -2.296875 7.1875 -2.296875 7.1875 -2.5 C 7.1875 -2.6875 7 -2.6875 6.859375 -2.6875 L 4.078125 -2.6875 L 4.078125 -5.484375 C 4.078125 -5.625 4.078125 -5.8125 3.875 -5.8125 C 3.671875 -5.8125 3.671875 -5.625 3.671875 -5.484375 L 3.671875 -2.6875 L 0.890625 -2.6875 C 0.75 -2.6875 0.5625 -2.6875 0.5625 -2.5 C 0.5625 -2.296875 0.75 -2.296875 0.890625 -2.296875 L 3.671875 -2.296875 L 3.671875 0.5 C 3.671875 0.640625 3.671875 0.828125 3.875 0.828125 C 4.078125 0.828125 4.078125 0.640625 4.078125 0.5 Z M 4.078125 -2.296875 "
           id="path214" />
      </symbol>
    </g>
    <g
       id="g640">
      <symbol
         overflow="visible"
         id="symbol7033">
        <path
           style="stroke:none;"
           d=""
           id="path8688" />
      </symbol>
      <symbol
         overflow="visible"
         id="symbol8874">
        <path
           style="stroke:none;"
           d="M 4.84375 -3.796875 C 4.890625 -3.9375 4.890625 -3.953125 4.890625 -4.03125 C 4.890625 -4.203125 4.75 -4.296875 4.59375 -4.296875 C 4.5 -4.296875 4.34375 -4.234375 4.25 -4.09375 C 4.234375 -4.03125 4.140625 -3.734375 4.109375 -3.546875 C 4.03125 -3.296875 3.96875 -3.015625 3.90625 -2.75 L 3.453125 -0.953125 C 3.421875 -0.8125 2.984375 -0.109375 2.328125 -0.109375 C 1.828125 -0.109375 1.71875 -0.546875 1.71875 -0.921875 C 1.71875 -1.375 1.890625 -2 2.21875 -2.875 C 2.375 -3.28125 2.421875 -3.390625 2.421875 -3.59375 C 2.421875 -4.03125 2.109375 -4.40625 1.609375 -4.40625 C 0.65625 -4.40625 0.296875 -2.953125 0.296875 -2.875 C 0.296875 -2.765625 0.390625 -2.765625 0.40625 -2.765625 C 0.515625 -2.765625 0.515625 -2.796875 0.5625 -2.953125 C 0.84375 -3.890625 1.234375 -4.1875 1.578125 -4.1875 C 1.65625 -4.1875 1.828125 -4.1875 1.828125 -3.875 C 1.828125 -3.625 1.71875 -3.359375 1.65625 -3.171875 C 1.25 -2.109375 1.078125 -1.546875 1.078125 -1.078125 C 1.078125 -0.1875 1.703125 0.109375 2.296875 0.109375 C 2.6875 0.109375 3.015625 -0.0625 3.296875 -0.34375 C 3.171875 0.171875 3.046875 0.671875 2.65625 1.203125 C 2.390625 1.53125 2.015625 1.828125 1.5625 1.828125 C 1.421875 1.828125 0.96875 1.796875 0.796875 1.40625 C 0.953125 1.40625 1.09375 1.40625 1.21875 1.28125 C 1.328125 1.203125 1.421875 1.0625 1.421875 0.875 C 1.421875 0.5625 1.15625 0.53125 1.0625 0.53125 C 0.828125 0.53125 0.5 0.6875 0.5 1.171875 C 0.5 1.671875 0.9375 2.046875 1.5625 2.046875 C 2.578125 2.046875 3.609375 1.140625 3.890625 0.015625 Z M 4.84375 -3.796875 "
           id="path9933" />
      </symbol>
      <symbol
         overflow="visible"
         id="symbol8022">
        <path
           style="stroke:none;"
           d="M 0.875 -0.59375 C 0.84375 -0.4375 0.78125 -0.203125 0.78125 -0.15625 C 0.78125 0.015625 0.921875 0.109375 1.078125 0.109375 C 1.203125 0.109375 1.375 0.03125 1.453125 -0.171875 C 1.453125 -0.1875 1.578125 -0.65625 1.640625 -0.90625 L 1.859375 -1.796875 C 1.90625 -2.03125 1.96875 -2.25 2.03125 -2.46875 C 2.0625 -2.640625 2.140625 -2.9375 2.15625 -2.96875 C 2.296875 -3.28125 2.828125 -4.1875 3.78125 -4.1875 C 4.234375 -4.1875 4.3125 -3.8125 4.3125 -3.484375 C 4.3125 -2.875 3.828125 -1.59375 3.671875 -1.171875 C 3.578125 -0.9375 3.5625 -0.8125 3.5625 -0.703125 C 3.5625 -0.234375 3.921875 0.109375 4.390625 0.109375 C 5.328125 0.109375 5.6875 -1.34375 5.6875 -1.421875 C 5.6875 -1.53125 5.609375 -1.53125 5.578125 -1.53125 C 5.46875 -1.53125 5.46875 -1.5 5.421875 -1.34375 C 5.21875 -0.671875 4.890625 -0.109375 4.40625 -0.109375 C 4.234375 -0.109375 4.171875 -0.203125 4.171875 -0.4375 C 4.171875 -0.6875 4.25 -0.921875 4.34375 -1.140625 C 4.53125 -1.671875 4.953125 -2.765625 4.953125 -3.34375 C 4.953125 -4 4.53125 -4.40625 3.8125 -4.40625 C 2.90625 -4.40625 2.421875 -3.765625 2.25 -3.53125 C 2.203125 -4.09375 1.796875 -4.40625 1.328125 -4.40625 C 0.875 -4.40625 0.6875 -4.015625 0.59375 -3.84375 C 0.421875 -3.5 0.296875 -2.90625 0.296875 -2.875 C 0.296875 -2.765625 0.390625 -2.765625 0.40625 -2.765625 C 0.515625 -2.765625 0.515625 -2.78125 0.578125 -3 C 0.75 -3.703125 0.953125 -4.1875 1.3125 -4.1875 C 1.5 -4.1875 1.609375 -4.0625 1.609375 -3.734375 C 1.609375 -3.515625 1.578125 -3.40625 1.453125 -2.890625 Z M 0.875 -0.59375 "
           id="path7630" />
      </symbol>
      <symbol
         overflow="visible"
         id="symbol7809">
        <path
           style="stroke:none;"
           d=""
           id="path8821" />
      </symbol>
      <symbol
         overflow="visible"
         id="symbol5832">
        <path
           style="stroke:none;"
           d="M 2.546875 2.5 L 2.546875 2.09375 L 1.578125 2.09375 L 1.578125 -7.078125 L 2.546875 -7.078125 L 2.546875 -7.484375 L 1.171875 -7.484375 L 1.171875 2.5 Z M 2.546875 2.5 "
           id="path7323" />
      </symbol>
      <symbol
         overflow="visible"
         id="symbol7597">
        <path
           style="stroke:none;"
           d="M 1.578125 -7.484375 L 0.21875 -7.484375 L 0.21875 -7.078125 L 1.1875 -7.078125 L 1.1875 2.09375 L 0.21875 2.09375 L 0.21875 2.5 L 1.578125 2.5 Z M 1.578125 -7.484375 "
           id="path2096" />
      </symbol>
    </g>
  </defs>
  <sodipodi:namedview
     id="base"
     pagecolor="#ffffff"
     bordercolor="#666666"
     borderopacity="1.0"
     inkscape:pageopacity="0.0"
     inkscape:pageshadow="2"
     inkscape:zoom="0.48188018"
     inkscape:cx="826.96907"
     inkscape:cy="437.86819"
     inkscape:document-units="px"
     inkscape:current-layer="layer1"
     showgrid="false"
     units="px"
     inkscape:pagecheckerboard="true"
     inkscape:showpageshadow="false"
     inkscape:window-width="1920"
     inkscape:window-height="1015"
     inkscape:window-x="0"
     inkscape:window-y="0"
     inkscape:window-maximized="1"
     inkscape:snap-bbox="true"
     inkscape:bbox-nodes="false"
     inkscape:snap-page="true"
     inkscape:snap-object-midpoints="true"
     inkscape:snap-intersection-paths="true"
     inkscape:snap-midpoints="true"
     inkscape:object-paths="false"
     inkscape:snap-bbox-midpoints="false"
     inkscape:snap-bbox-edge-midpoints="false"
     inkscape:bbox-paths="true"
     inkscape:snap-smooth-nodes="true"
     inkscape:snap-center="false" />
  <metadata
     id="metadata5">
    <rdf:RDF>
      <cc:Work
         rdf:about="">
        <dc:format>image/svg+xml</dc:format>
        <dc:type
           rdf:resource="http://purl.org/dc/dcmitype/StillImage" />
      </cc:Work>
    </rdf:RDF>
  </metadata>
  <g
     inkscape:label="Layer 1"
     inkscape:groupmode="layer"
     id="layer1"
     transform="translate(0, -138.25)">
    <rect
       style="fill:#ffffff;fill-opacity:0.999967;stroke:none;stroke-width:20"
       id="rect866"
       width="1920"
       height="1080"
       x="0"
       y="138.25" />
    <g
       id="g5847"
       transform="matrix(0.90407377,0,0,0.90391443,23.837058,186.22981)"
       style="stroke-width:1.1062">
      <g
         inkscape:label=""
         transform="matrix(15.023474,0,0,15.023474,-1345.493,-855.67765)"
         id="g980"
         style="stroke-width:0.0736317">
        <g
           id="g9913"
           style="stroke-width:0.0736317">
          <g
             style="fill:#000000;fill-opacity:1;stroke-width:0.0736317"
             id="g4328">
            <use
               xlink:href="#symbol8312"
               x="91.925003"
               y="81.962997"
               id="use9318"
               width="100%"
               height="100%"
               style="stroke-width:0.0736317" />
          </g>
          <g
             style="fill:#000000;fill-opacity:1;stroke-width:0.0736317"
             id="g8734">
            <use
               xlink:href="#symbol5882"
               x="97.619003"
               y="81.962997"
               id="use814"
               width="100%"
               height="100%"
               style="stroke-width:0.0736317" />
          </g>
          <g
             style="fill:#000000;fill-opacity:1;stroke-width:0.0736317"
             id="g8933">
            <use
               xlink:href="#symbol4247"
               x="100.387"
               y="81.962997"
               id="use7509"
               width="100%"
               height="100%"
               style="stroke-width:0.0736317" />
          </g>
          <g
             style="fill:#000000;fill-opacity:1;stroke-width:0.0736317"
             id="g3402">
            <use
               xlink:href="#symbol6770"
               x="106.367"
               y="81.962997"
               id="use1435"
               width="100%"
               height="100%"
               style="stroke-width:0.0736317" />
          </g>
        </g>
      </g>
      <g
         inkscape:label=""
         transform="matrix(20.382166,0,0,20.382166,-1139.817,-1264.0283)"
         id="g1575"
         style="stroke-width:0.054273">
        <g
           id="g723"
           style="stroke-width:0.054273">
          <g
             style="fill:#000000;fill-opacity:1;stroke-width:0.054273"
             id="g5131">
            <use
               xlink:href="#symbol8472"
               x="91.925003"
               y="81.962997"
               id="use8828"
               width="100%"
               height="100%"
               style="stroke-width:0.054273" />
          </g>
        </g>
      </g>
      <g
         inkscape:label=""
         transform="matrix(9.4846597,0,0,9.4846597,-120.78262,176.10555)"
         id="g2038"
         style="stroke-width:0.11663">
        <g
           inkscape:label=""
           transform="matrix(2.1673677,0,0,2.1673677,-109.52329,-110.55199)"
           id="g2652"
           style="stroke-width:0.00778304">
          <g
             id="g5244"
             style="stroke-width:0.00778304">
            <g
               style="fill:#000000;fill-opacity:1;stroke-width:0.00778304"
               id="g1915">
              <use
                 xlink:href="#symbol9222"
                 x="91.925003"
                 y="81.962997"
                 id="use5056"
                 width="100%"
                 height="100%"
                 style="stroke-width:0.00778304" />
            </g>
          </g>
        </g>
      </g>
      <g
         inkscape:label=""
         transform="matrix(17.359855,0,0,17.359855,-1209.6373,-499.316)"
         id="g2360"
         style="stroke-width:0.0637221">
        <g
           id="g9606"
           style="stroke-width:0.0889508"
           transform="matrix(0.71637322,0,0,0.71637322,72.903984,14.995651)">
          <g
             style="fill:#000000;fill-opacity:1;stroke-width:0.0889508"
             id="g5291">
            <use
               xlink:href="#symbol4469"
               x="91.925003"
               y="81.962997"
               id="use4319"
               width="100%"
               height="100%"
               style="stroke-width:0.0889508" />
          </g>
        </g>
      </g>
      <path
         style="fill:none;stroke:#000000;stroke-width:5.53101;stroke-linecap:butt;stroke-linejoin:miter;stroke-miterlimit:4;stroke-dasharray:none;stroke-opacity:1;marker-end:url(#Arrow1Lend)"
         d="M 301.60163,340.00571 H 665.07448"
         id="path2904" />
      <path
         sodipodi:type="star"
         style="fill:none;fill-opacity:0.999967;stroke:#000000;stroke-width:9.05706;stroke-miterlimit:4;stroke-dasharray:none"
         id="path3300"
         inkscape:flatsided="true"
         sodipodi:sides="3"
         sodipodi:cx="232.80107"
         sodipodi:cy="446.75241"
         sodipodi:r1="184.95712"
         sodipodi:r2="92.478561"
         sodipodi:arg1="0"
         sodipodi:arg2="1.0471976"
         inkscape:rounded="0"
         inkscape:randomized="0"
         transform="matrix(0.60992865,0,0,0.61144391,1095.3952,475.47353)"
         inkscape:transform-center-x="-28.202702"
         inkscape:transform-center-y="3.6502834e-06"
         d="m 417.75819,446.75241 -277.43568,160.17757 0,-320.35514 z" />
      <rect
         style="fill:none;fill-opacity:0.999967;stroke:#000000;stroke-width:5.53101;stroke-miterlimit:4;stroke-dasharray:none"
         id="rect3514"
         width="299.43353"
         height="228.63184"
         x="665.07446"
         y="225.6898" />
      <rect
         style="fill:none;fill-opacity:0.999967;stroke:#000000;stroke-width:5.53101;stroke-miterlimit:4;stroke-dasharray:none"
         id="rect3719"
         width="299.43353"
         height="228.63184"
         x="665.07446"
         y="634.32166" />
      <path
         style="fill:none;stroke:#000000;stroke-width:5.53101;stroke-linecap:butt;stroke-linejoin:miter;stroke-miterlimit:4;stroke-dasharray:none;stroke-opacity:1;marker-start:url(#Arrow1Lstart)"
         d="M 665.07446,748.63757 H 476.45915 V 340.00571"
         id="path4089" />
      <path
         style="fill:none;stroke:#000000;stroke-width:5.53101;stroke-linecap:butt;stroke-linejoin:miter;stroke-miterlimit:4;stroke-dasharray:none;stroke-opacity:1;marker-end:url(#Arrow1Lend)"
         d="m 964.508,748.63757 h 216.4739"
         id="path4189"
         sodipodi:nodetypes="cc" />
      <g
         id="g4946"
         transform="translate(34.035488,5.5476299)"
         style="stroke-width:1.1062">
        <circle
           style="fill:none;fill-opacity:0.999967;stroke:#000000;stroke-width:5.53101;stroke-miterlimit:4;stroke-dasharray:none"
           id="path4558"
           cx="1458.6151"
           cy="519.81042"
           r="70.338165" />
        <g
           inkscape:label=""
           transform="matrix(12.814577,0,0,12.814577,230.97857,-498.57441)"
           id="g4826"
           style="stroke-width:0.0863237">
          <g
             id="g1826"
             style="stroke-width:0.0863237">
            <g
               style="fill:#000000;fill-opacity:1;stroke-width:0.0863237"
               id="g2833">
              <use
                 xlink:href="#symbol3988"
                 x="91.925003"
                 y="81.962997"
                 id="use2475"
                 width="100%"
                 height="100%"
                 style="stroke-width:0.0863237" />
            </g>
          </g>
        </g>
      </g>
      <path
         style="fill:none;stroke:#000000;stroke-width:5.53101;stroke-linecap:butt;stroke-linejoin:miter;stroke-miterlimit:4;stroke-dasharray:none;stroke-opacity:1;marker-end:url(#marker4093)"
         d="m 1350.1979,748.63757 h 142.4527 V 595.69622"
         id="path4981" />
      <path
         style="fill:none;stroke:#000000;stroke-width:5.53101;stroke-linecap:butt;stroke-linejoin:miter;stroke-miterlimit:4;stroke-dasharray:none;stroke-opacity:1;marker-end:url(#Arrow1Lend)"
         d="m 964.508,340.00573 h 528.2307 v 115.01421"
         id="path5096" />
      <path
         style="fill:none;stroke:#000000;stroke-width:5.53101;stroke-linecap:butt;stroke-linejoin:miter;stroke-miterlimit:4;stroke-dasharray:none;stroke-opacity:1;marker-end:url(#Arrow1Lend)"
         d="m 1562.9888,525.35805 h 216.4739"
         id="path5280"
         sodipodi:nodetypes="cc" />
      <g
         inkscape:label=""
         transform="matrix(15.023474,0,0,15.023474,416.06778,-676.89485)"
         id="g5588"
         style="stroke-width:0.0736316">
        <g
           id="g4241"
           style="stroke-width:0.0736316">
          <g
             style="fill:#000000;fill-opacity:1;stroke-width:0.0736316"
             id="g2813">
            <use
               xlink:href="#symbol8874"
               x="91.925003"
               y="81.962997"
               id="use1550"
               width="100%"
               height="100%"
               style="stroke-width:0.0736316" />
          </g>
          <g
             style="fill:#000000;fill-opacity:1;stroke-width:0.0736316"
             id="g6520">
            <use
               xlink:href="#symbol5832"
               x="97.167"
               y="81.962997"
               id="use9709"
               width="100%"
               height="100%"
               style="stroke-width:0.0736316" />
          </g>
          <g
             style="fill:#000000;fill-opacity:1;stroke-width:0.0736316"
             id="g4520">
            <use
               xlink:href="#symbol8022"
               x="99.934998"
               y="81.962997"
               id="use2393"
               width="100%"
               height="100%"
               style="stroke-width:0.0736316" />
          </g>
          <g
             style="fill:#000000;fill-opacity:1;stroke-width:0.0736316"
             id="g9829">
            <use
               xlink:href="#symbol7597"
               x="105.915"
               y="81.962997"
               id="use7036"
               width="100%"
               height="100%"
               style="stroke-width:0.0736316" />
          </g>
        </g>
      </g>
    </g>
  </g>
</svg>
